<svg width="32" height="32" viewBox="0 0 32 32" fill="none" xmlns="http://www.w3.org/2000/svg">
<circle cx="16" cy="16" r="16" fill="#F0F6FF"/>
<path fill-rule="evenodd" clip-rule="evenodd" d="M9.20007 14.6542C9.20007 10.9743 12.2752 8 15.9948 8C19.725 8 22.8001 10.9743 22.8001 14.6542C22.8001 16.5086 22.1257 18.2301 21.0157 19.6893C19.7911 21.2988 18.2818 22.7012 16.5829 23.8019C16.1941 24.0563 15.8432 24.0755 15.4164 23.8019C13.7079 22.7012 12.1985 21.2988 10.9845 19.6893C9.87366 18.2301 9.20007 16.5086 9.20007 14.6542ZM13.7555 14.8614C13.7555 16.0942 14.7614 17.0637 15.9948 17.0637C17.2291 17.0637 18.2447 16.0942 18.2447 14.8614C18.2447 13.6382 17.2291 12.6215 15.9948 12.6215C14.7614 12.6215 13.7555 13.6382 13.7555 14.8614Z" fill="#0A7DFA"/>
</svg>
