<svg width="24" height="24" viewBox="0 0 24 24" fill="none" xmlns="http://www.w3.org/2000/svg">
<g id="LinkedIn">
<g id="LinkedIn_2">
<rect id="Rectangle" width="24" height="24" rx="12" fill="#0A7DFA"/>
<g id="Group">
<path id="Path" d="M18.6625 17.6625C17.875 17.6438 17.1062 17.6438 16.3187 17.6625C16.15 17.6625 16.1125 17.625 16.1125 17.4563C16.1125 16.0688 16.1125 14.6625 16.1125 13.275C16.1125 12.9563 16.0937 12.6375 16 12.3375C15.7187 11.3625 14.5937 11.0063 13.7875 11.6625C13.3562 12 13.1875 12.4688 13.1875 13.0313C13.1875 14.3438 13.1875 15.6563 13.1875 16.9688C13.1875 17.1375 13.1687 17.3063 13.1875 17.4938C13.2062 17.6438 13.1312 17.6813 13 17.6625C12.1937 17.6625 11.4062 17.6625 10.6 17.6625C10.45 17.6625 10.4125 17.625 10.4125 17.475C10.4312 16.2938 10.4312 15.1125 10.4312 13.9125C10.4312 12.45 10.4312 10.9875 10.4125 9.54379C10.4125 9.37504 10.45 9.33754 10.6 9.33754C11.4062 9.33754 12.1937 9.33754 13 9.33754C13.15 9.33754 13.1875 9.37504 13.1875 9.52504C13.1875 9.82504 13.1875 10.125 13.1875 10.4813C13.2437 10.425 13.2625 10.4063 13.2812 10.3875C14.0125 9.31879 15.0437 9.01879 16.2625 9.20629C17.6687 9.43129 18.5687 10.4063 18.7937 11.9063C18.85 12.2625 18.8687 12.6188 18.8687 12.975C18.8687 14.475 18.8687 15.9563 18.8687 17.4563C18.8687 17.6063 18.8312 17.6625 18.6625 17.6625Z" fill="white"/>
<path id="Path_2" d="M8.9125 13.4999C8.9125 14.8124 8.9125 16.1249 8.9125 17.4374C8.9125 17.6062 8.875 17.6624 8.70625 17.6624C7.91875 17.6437 7.13125 17.6624 6.34375 17.6624C6.19375 17.6624 6.15625 17.6249 6.15625 17.4749C6.15625 14.8312 6.15625 12.1687 6.15625 9.5249C6.15625 9.39365 6.19375 9.3374 6.34375 9.3374C7.15 9.3374 7.95625 9.3374 8.7625 9.3374C8.93125 9.3374 8.95 9.39365 8.95 9.54365C8.9125 10.8562 8.9125 12.1687 8.9125 13.4999Z" fill="white"/>
<path id="Path_3" d="M9.04372 7.16251C8.85622 7.91251 8.08747 8.34376 7.20622 8.19376C6.26872 8.04376 5.74372 7.12501 6.08122 6.22501C6.30622 5.66251 6.84997 5.32501 7.54372 5.34376C8.59372 5.32501 9.28747 6.16876 9.04372 7.16251Z" fill="white"/>
</g>
</g>
</g>
</svg>
